<svg width="99" height="97" viewBox="0 0 99 97" fill="none" xmlns="http://www.w3.org/2000/svg">
<g clip-path="url(#clip0_2303_21)">
<path d="M17.5313 7.81835e-06H81.4688C83.7716 -0.00217331 86.0523 0.452029 88.1802 1.33662C90.3082 2.22121 92.2417 3.51882 93.8701 5.1552C95.4984 6.79157 96.7897 8.73458 97.6699 10.873C98.5502 13.0115 99.0022 15.3034 99 17.6175V79.3825C99.0022 81.6967 98.5502 83.9886 97.6699 86.127C96.7897 88.2654 95.4984 90.2084 93.8701 91.8448C92.2417 93.4812 90.3082 94.7788 88.1802 95.6634C86.0523 96.548 83.7716 97.0022 81.4688 97H17.5313C15.2284 97.0022 12.9477 96.548 10.8198 95.6634C8.6918 94.7788 6.75831 93.4812 5.12995 91.8448C3.50159 90.2084 2.21033 88.2654 1.33007 86.127C0.449815 83.9886 -0.00216267 81.6967 7.78006e-06 79.3825V17.6175C-0.00216267 15.3034 0.449815 13.0115 1.33007 10.873C2.21033 8.73458 3.50159 6.79157 5.12995 5.1552C6.75831 3.51882 8.6918 2.22121 10.8198 1.33662C12.9477 0.452029 15.2284 -0.00217331 17.5313 7.81835e-06V7.81835e-06Z" fill="#49021F"/>
<path d="M35.97 25.3693V67.9C35.97 68.356 35.7637 68.5633 35.3925 68.5633H27.3075C26.9362 68.5633 26.7712 68.356 26.7712 67.9V25.3693C26.7712 24.9962 26.9775 24.8304 27.3487 24.8304H35.3925C35.455 24.8205 35.5189 24.8235 35.5803 24.8392C35.6416 24.8549 35.6991 24.883 35.7493 24.9218C35.7995 24.9606 35.8413 25.0092 35.8721 25.0648C35.903 25.1203 35.9222 25.1816 35.9287 25.2449C35.9443 25.2613 35.9561 25.2809 35.9633 25.3024C35.9704 25.3239 35.9727 25.3467 35.97 25.3693V25.3693Z" fill="#FF3366"/>
<path d="M59.7299 69.2265C56.6722 69.2769 53.642 68.6396 50.8612 67.3611C48.2738 66.1453 46.1054 64.1827 44.6324 61.7235C43.1061 59.1949 42.3636 56.0445 42.3636 52.2722C42.3218 49.2045 43.1057 46.1825 44.6324 43.5257C46.1978 40.8254 48.4651 38.6043 51.1911 37.1004C54.0786 35.4838 57.5436 34.6962 61.6274 34.6962C61.9167 34.6929 62.206 34.7067 62.4937 34.7376C62.8649 34.7791 63.2774 34.7791 63.7724 34.8205V21.7214C63.7724 21.4312 63.8962 21.2654 64.1849 21.2654H72.5586C72.6511 21.2528 72.7449 21.2757 72.8213 21.3295C72.8978 21.3832 72.9513 21.464 72.9711 21.5556V61.1017C72.9711 61.8479 73.0124 62.6769 73.0537 63.5889C73.0949 64.5009 73.1774 65.2885 73.2187 65.9932C73.2274 66.1332 73.1924 66.2724 73.1184 66.3914C73.0444 66.5103 72.9352 66.603 72.8062 66.6564C70.6455 67.5689 68.3903 68.2363 66.0824 68.6462C63.9861 69.028 61.8603 69.2222 59.7299 69.2265ZM63.7724 60.9359V42.6966C63.4051 42.6075 63.0333 42.5383 62.6586 42.4893C62.2049 42.4479 61.7512 42.4064 61.2974 42.4064C59.6805 42.3881 58.0825 42.7576 56.6362 43.4842C55.2266 44.19 54.0197 45.2459 53.1299 46.5517C52.2224 47.8782 51.7687 49.6607 51.7687 51.8162C51.7327 53.2712 51.9706 54.7198 52.4699 56.0859C52.8688 57.1907 53.5023 58.195 54.3261 59.0291C55.1214 59.7917 56.0814 60.3592 57.1312 60.6872C58.2361 61.0509 59.3922 61.2328 60.5549 61.2261C61.1737 61.2261 61.7512 61.1846 62.2874 61.1432C62.7915 61.1822 63.298 61.1115 63.7724 60.9359V60.9359Z" fill="#FF3366"/>
</g>
<defs>
<clipPath id="clip0_2303_21">
<rect width="99" height="97" fill="white"/>
</clipPath>
</defs>
</svg>
